<svg width="32" height="32" viewBox="0 0 32 32" fill="none" xmlns="http://www.w3.org/2000/svg">
<path d="M11.3364 14.6666C11.0966 14.6666 10.8745 14.7266 10.6702 14.8466C10.4658 14.9666 10.3037 15.1288 10.1838 15.3333C10.0639 15.5377 10.0039 15.7599 10.0039 15.9999C10.0039 16.2399 10.0639 16.4621 10.1838 16.6666C10.3037 16.871 10.4658 17.0333 10.6702 17.1533C10.8745 17.2733 11.0966 17.3333 11.3364 17.3333C11.5763 17.3333 11.7983 17.2733 12.0027 17.1533C12.207 17.0333 12.3691 16.871 12.489 16.6666C12.6089 16.4621 12.6689 16.2399 12.6689 15.9999C12.6689 15.7599 12.6089 15.5377 12.489 15.3333C12.3691 15.1288 12.207 14.9666 12.0027 14.8466C11.7983 14.7266 11.5763 14.6666 11.3364 14.6666ZM20.6639 14.6666C20.4241 14.6666 20.202 14.7266 19.9977 14.8466C19.7933 14.9666 19.6312 15.1288 19.5113 15.3333C19.3914 15.5377 19.3314 15.7599 19.3314 15.9999C19.3314 16.2399 19.3914 16.4621 19.5113 16.6666C19.6312 16.871 19.7933 17.0333 19.9977 17.1533C20.202 17.2733 20.4241 17.3333 20.6639 17.3333C20.9038 17.3333 21.1258 17.2733 21.3302 17.1533C21.5345 17.0333 21.6966 16.871 21.8165 16.6666C21.9364 16.4621 21.9964 16.2399 21.9964 15.9999C21.9964 15.7599 21.9364 15.5377 21.8165 15.3333C21.6966 15.1288 21.5345 14.9666 21.3302 14.8466C21.1258 14.7266 20.9038 14.6666 20.6639 14.6666ZM16.0002 14.6666C15.7603 14.6666 15.5382 14.7266 15.3339 14.8466C15.1296 14.9666 14.9675 15.1288 14.8475 15.3333C14.7276 15.5377 14.6677 15.7599 14.6677 15.9999C14.6677 16.2399 14.7276 16.4621 14.8475 16.6666C14.9675 16.871 15.1296 17.0333 15.3339 17.1533C15.5382 17.2733 15.7603 17.3333 16.0002 17.3333C16.24 17.3333 16.4621 17.2733 16.6664 17.1533C16.8707 17.0333 17.0328 16.871 17.1528 16.6666C17.2727 16.4621 17.3327 16.2399 17.3327 15.9999C17.3327 15.7599 17.2727 15.5377 17.1528 15.3333C17.0328 15.1288 16.8707 14.9666 16.6664 14.8466C16.4621 14.7266 16.24 14.6666 16.0002 14.6666Z" fill="#4B5563"/>
</svg>
