<svg width="40" height="40" viewBox="0 0 40 40" fill="none" xmlns="http://www.w3.org/2000/svg">
<path d="M0 8C0 3.58172 3.58172 0 8 0H32C36.4183 0 40 3.58172 40 8V32C40 36.4183 36.4183 40 32 40H8C3.58172 40 0 36.4183 0 32V8Z" fill="#F4F4F4"/>
<path d="M19.9922 27.5C18.9722 27.5 17.9972 27.305 17.0672 26.915C16.1772 26.535 15.3847 25.9975 14.6897 25.3025C13.9947 24.6075 13.4572 23.815 13.0772 22.925C12.6872 21.995 12.4922 21.02 12.4922 20C12.4922 18.98 12.6872 18.005 13.0772 17.075C13.4572 16.185 13.9947 15.3925 14.6897 14.6975C15.3847 14.0025 16.1772 13.465 17.0672 13.085C17.9972 12.695 18.9722 12.5 19.9922 12.5C21.0122 12.5 21.9872 12.695 22.9172 13.085C23.8072 13.465 24.5997 14.0025 25.2947 14.6975C25.9897 15.3925 26.5272 16.185 26.9072 17.075C27.2972 18.005 27.4922 18.98 27.4922 20C27.4922 21.02 27.2972 21.995 26.9072 22.925C26.5272 23.815 25.9897 24.6075 25.2947 25.3025C24.5997 25.9975 23.8072 26.535 22.9172 26.915C21.9872 27.305 21.0122 27.5 19.9922 27.5ZM19.9922 26C21.0822 26 22.0922 25.725 23.0222 25.175C23.9222 24.645 24.6372 23.93 25.1672 23.03C25.7172 22.1 25.9922 21.09 25.9922 20C25.9922 18.91 25.7172 17.9 25.1672 16.97C24.6372 16.07 23.9222 15.355 23.0222 14.825C22.0922 14.275 21.0822 14 19.9922 14C18.9022 14 17.8922 14.275 16.9622 14.825C16.0622 15.355 15.3472 16.07 14.8172 16.97C14.2672 17.9 13.9922 18.91 13.9922 20C13.9922 21.09 14.2672 22.1 14.8172 23.03C15.3472 23.93 16.0622 24.645 16.9622 25.175C17.8922 25.725 18.9022 26 19.9922 26ZM17.3672 21.5H21.4922C21.5922 21.5 21.6797 21.4625 21.7547 21.3875C21.8297 21.3125 21.8672 21.225 21.8672 21.125C21.8672 21.025 21.8297 20.9375 21.7547 20.8625C21.6797 20.7875 21.5922 20.75 21.4922 20.75H18.4922C18.1522 20.75 17.8397 20.665 17.5547 20.495C17.2697 20.325 17.0422 20.0975 16.8722 19.8125C16.7022 19.5275 16.6172 19.215 16.6172 18.875C16.6172 18.535 16.7022 18.2225 16.8722 17.9375C17.0422 17.6525 17.2697 17.425 17.5547 17.255C17.8397 17.085 18.1522 17 18.4922 17H19.2422V15.5H20.7422V17H22.6172V18.5H18.4922C18.3922 18.5 18.3047 18.5375 18.2297 18.6125C18.1547 18.6875 18.1172 18.775 18.1172 18.875C18.1172 18.975 18.1547 19.0625 18.2297 19.1375C18.3047 19.2125 18.3922 19.25 18.4922 19.25H21.4922C21.8322 19.25 22.1447 19.335 22.4297 19.505C22.7147 19.675 22.9422 19.9025 23.1122 20.1875C23.2822 20.4725 23.3672 20.785 23.3672 21.125C23.3672 21.465 23.2822 21.7775 23.1122 22.0625C22.9422 22.3475 22.7147 22.575 22.4297 22.745C22.1447 22.915 21.8322 23 21.4922 23H20.7422V24.5H19.2422V23H17.3672V21.5Z" fill="black"/>
</svg>
