<svg width="40" height="40" viewBox="0 0 40 40" fill="none" xmlns="http://www.w3.org/2000/svg">
<path d="M26.6642 23.75H28.3305V25.4167H11.668V23.75H13.3342V17.9167C13.3342 16.7056 13.6397 15.5833 14.2507 14.55C14.8394 13.55 15.6336 12.7556 16.6334 12.1667C17.6665 11.5556 18.7884 11.25 19.9992 11.25C21.21 11.25 22.332 11.5556 23.365 12.1667C24.3648 12.7556 25.159 13.55 25.7478 14.55C26.3587 15.5833 26.6642 16.7056 26.6642 17.9167V23.75ZM24.998 23.75V17.9167C24.998 17.0167 24.7702 16.1778 24.3148 15.4C23.8705 14.6444 23.2706 14.0444 22.5153 13.6C21.7377 13.1444 20.899 12.9167 19.9992 12.9167C19.0994 12.9167 18.2608 13.1444 17.4832 13.6C16.7278 14.0444 16.128 14.6444 15.6836 15.4C15.2282 16.1778 15.0005 17.0167 15.0005 17.9167V23.75H24.998ZM17.4998 27.0833H22.4986V28.75H17.4998V27.0833Z" fill="#374151"/>
<path d="M28 8C28 5.79086 29.7909 4 32 4C34.2091 4 36 5.79086 36 8C36 10.2091 34.2091 12 32 12C29.7909 12 28 10.2091 28 8Z" fill="#DC2626"/>
</svg>
