<svg width="40" height="40" viewBox="0 0 40 40" fill="none" xmlns="http://www.w3.org/2000/svg">
<path d="M0 8C0 3.58172 3.58172 0 8 0H32C36.4183 0 40 3.58172 40 8V32C40 36.4183 36.4183 40 32 40H8C3.58172 40 0 36.4183 0 32V8Z" fill="#F4F4F4"/>
<path d="M17.7422 12.5V14H22.2422V12.5H23.7422V14H26.7422C26.9522 14 27.1297 14.0725 27.2747 14.2175C27.4197 14.3625 27.4922 14.54 27.4922 14.75V26.75C27.4922 26.96 27.4197 27.1375 27.2747 27.2825C27.1297 27.4275 26.9522 27.5 26.7422 27.5H13.2422C13.0322 27.5 12.8547 27.4275 12.7097 27.2825C12.5647 27.1375 12.4922 26.96 12.4922 26.75V14.75C12.4922 14.54 12.5647 14.3625 12.7097 14.2175C12.8547 14.0725 13.0322 14 13.2422 14H16.2422V12.5H17.7422ZM25.9922 19.25H13.9922V26H25.9922V19.25ZM22.2722 20.105L23.3222 21.17L19.6172 24.875L16.9622 22.22L18.0272 21.17L19.6172 22.76L22.2722 20.105ZM16.2422 15.5H13.9922V17.75H25.9922V15.5H23.7422V16.25H22.2422V15.5H17.7422V16.25H16.2422V15.5Z" fill="black"/>
</svg>
