<svg width="40" height="40" viewBox="0 0 40 40" fill="none" xmlns="http://www.w3.org/2000/svg">
<path d="M0 8C0 3.58172 3.58172 0 8 0H32C36.4183 0 40 3.58172 40 8V32C40 36.4183 36.4183 40 32 40H8C3.58172 40 0 36.4183 0 32V8Z" fill="#F3F4F6"/>
<path d="M13.2422 13.25H26.7422C26.9522 13.25 27.1297 13.3225 27.2747 13.4675C27.4197 13.6125 27.4922 13.79 27.4922 14V26C27.4922 26.21 27.4197 26.3875 27.2747 26.5325C27.1297 26.6775 26.9522 26.75 26.7422 26.75H13.2422C13.0322 26.75 12.8547 26.6775 12.7097 26.5325C12.5647 26.3875 12.4922 26.21 12.4922 26V14C12.4922 13.79 12.5647 13.6125 12.7097 13.4675C12.8547 13.3225 13.0322 13.25 13.2422 13.25ZM13.9922 14.75V25.25H25.9922V14.75H13.9922ZM16.2422 20.75H17.7422V23.75H16.2422V20.75ZM19.2422 16.25H20.7422V23.75H19.2422V16.25ZM22.2422 18.5H23.7422V23.75H22.2422V18.5Z" fill="#374151"/>
</svg>
