<svg width="40" height="40" viewBox="0 0 40 40" fill="none" xmlns="http://www.w3.org/2000/svg">
<path d="M0 8C0 3.58172 3.58172 0 8 0H32C36.4183 0 40 3.58172 40 8V32C40 36.4183 36.4183 40 32 40H8C3.58172 40 0 36.4183 0 32V8Z" fill="#F3F4F6"/>
<path d="M25.918 16.07L24.418 17.57V14H17.668V17.75H13.918V26H24.418V23.93L25.918 22.43V26.75C25.918 26.96 25.8455 27.1375 25.7005 27.2825C25.5555 27.4275 25.383 27.5 25.183 27.5H13.168C12.958 27.5 12.7805 27.4275 12.6355 27.2825C12.4905 27.1375 12.418 26.96 12.418 26.75V17L16.918 12.5H25.168C25.378 12.5 25.5555 12.5725 25.7005 12.7175C25.8455 12.8625 25.918 13.04 25.918 13.25V16.07ZM26.503 17.6L27.568 18.665L21.733 24.5H20.668V23.435L26.503 17.6Z" fill="#374151"/>
</svg>
