<svg width="40" height="40" viewBox="0 0 40 40" fill="none" xmlns="http://www.w3.org/2000/svg">
<path d="M0 8C0 3.58172 3.58172 0 8 0H32C36.4183 0 40 3.58172 40 8V32C40 36.4183 36.4183 40 32 40H8C3.58172 40 0 36.4183 0 32V8Z" fill="#DCFCE7"/>
<path d="M18.8828 21.5151V23.0151C18.0728 23.0151 17.3178 23.2201 16.6178 23.6301C15.9378 24.0301 15.3978 24.5701 14.9978 25.2501C14.5878 25.9501 14.3828 26.7051 14.3828 27.5151H12.8828C12.8828 26.4351 13.1578 25.4251 13.7078 24.4851C14.2378 23.5851 14.9528 22.8701 15.8528 22.3401C16.7928 21.7901 17.8028 21.5151 18.8828 21.5151ZM18.8828 20.7651C18.0728 20.7651 17.3178 20.5601 16.6178 20.1501C15.9378 19.7601 15.3978 19.2251 14.9978 18.5451C14.5878 17.8451 14.3828 17.0876 14.3828 16.2726C14.3828 15.4576 14.5878 14.7001 14.9978 14.0001C15.3978 13.3201 15.9378 12.7801 16.6178 12.3801C17.3178 11.9701 18.0753 11.7651 18.8903 11.7651C19.7053 11.7651 20.4628 11.9701 21.1628 12.3801C21.8428 12.7801 22.3778 13.3201 22.7678 14.0001C23.1778 14.7001 23.3828 15.4576 23.3828 16.2726C23.3828 17.0876 23.1778 17.8451 22.7678 18.5451C22.3778 19.2251 21.8428 19.7601 21.1628 20.1501C20.4628 20.5601 19.7028 20.7651 18.8828 20.7651ZM18.8828 19.2651C19.4328 19.2651 19.9353 19.1301 20.3903 18.8601C20.8453 18.5901 21.2078 18.2276 21.4778 17.7726C21.7478 17.3176 21.8828 16.8176 21.8828 16.2726C21.8828 15.7276 21.7478 15.2251 21.4778 14.7651C21.2078 14.3051 20.8453 13.9401 20.3903 13.6701C19.9353 13.4001 19.4353 13.2651 18.8903 13.2651C18.3453 13.2651 17.8428 13.4001 17.3828 13.6701C16.9228 13.9401 16.5578 14.3051 16.2878 14.7651C16.0178 15.2251 15.8828 15.7276 15.8828 16.2726C15.8828 16.8176 16.0178 17.3176 16.2878 17.7726C16.5578 18.2276 16.9228 18.5901 17.3828 18.8601C17.8428 19.1301 18.3428 19.2651 18.8828 19.2651ZM25.9778 26.0451L27.1028 27.1701L26.0378 28.2351L24.9128 27.1101C24.4428 27.3801 23.9353 27.5151 23.3903 27.5151C22.8453 27.5151 22.3428 27.3801 21.8828 27.1101C21.4228 26.8401 21.0578 26.4776 20.7878 26.0226C20.5178 25.5676 20.3828 25.0676 20.3828 24.5226C20.3828 23.9776 20.5178 23.4751 20.7878 23.0151C21.0578 22.5551 21.4228 22.1901 21.8828 21.9201C22.3428 21.6501 22.8453 21.5151 23.3903 21.5151C23.9353 21.5151 24.4353 21.6501 24.8903 21.9201C25.3453 22.1901 25.7078 22.5551 25.9778 23.0151C26.2478 23.4751 26.3828 23.9776 26.3828 24.5226C26.3828 25.0676 26.2478 25.5751 25.9778 26.0451ZM23.3828 26.0151C23.6528 26.0151 23.9028 25.9476 24.1328 25.8126C24.3628 25.6776 24.5453 25.4951 24.6803 25.2651C24.8153 25.0351 24.8828 24.7851 24.8828 24.5151C24.8828 24.2451 24.8153 23.9951 24.6803 23.7651C24.5453 23.5351 24.3628 23.3526 24.1328 23.2176C23.9028 23.0826 23.6528 23.0151 23.3828 23.0151C23.1128 23.0151 22.8628 23.0826 22.6328 23.2176C22.4028 23.3526 22.2203 23.5351 22.0853 23.7651C21.9503 23.9951 21.8828 24.2451 21.8828 24.5151C21.8828 24.7851 21.9503 25.0351 22.0853 25.2651C22.2203 25.4951 22.4028 25.6776 22.6328 25.8126C22.8628 25.9476 23.1128 26.0151 23.3828 26.0151Z" fill="#16A34A"/>
</svg>
