<svg width="118" height="28" viewBox="0 0 118 28" fill="none" xmlns="http://www.w3.org/2000/svg">
<path fill-rule="evenodd" clip-rule="evenodd" d="M74.2464 3.53422C74.2464 5.28717 74.4084 7.05072 76.533 7.48096C77.5273 7.68214 81.7298 7.60762 82.9203 7.60762C83.6381 7.60762 84.3556 7.60762 85.0731 7.60762C85.6073 7.60762 86.466 7.51863 86.466 8.35632C86.466 9.24268 86.5833 9.79408 85.453 9.79408H74.3415V12.6097H86.4978C87.0608 12.6097 87.7166 12.5387 88.1309 12.3876C89.6242 11.8427 90.0435 10.3958 90.0435 8.80591C90.0435 7.09796 89.7779 5.73656 88.2165 5.14321C87.0903 4.71521 85.9056 4.82231 84.7251 4.82231L78.994 4.82333C78.4424 4.82251 77.8568 4.73944 77.7959 4.15973C77.6226 2.50431 78.2902 2.75558 80.0399 2.75558H89.094C89.2528 2.75619 89.5052 2.80445 89.5052 2.66578V0.0899999C89.5052 0.0207694 89.4833 0 89.4103 0H77.8871C76.4691 0 75.3945 0.14742 74.671 1.30011C74.5785 1.44794 74.4672 1.73748 74.4173 1.92848C74.2933 2.40169 74.2464 2.95757 74.2464 3.53422Z" fill="black"/>
<path fill-rule="evenodd" clip-rule="evenodd" d="M95.1565 6.47296C95.1565 5.76016 95.1208 4.16548 95.2934 3.60678C95.4546 3.085 95.862 2.9325 96.4895 2.85246L99.3724 2.74407C100.674 2.74687 103.84 2.70714 104.74 3.01155C105.365 3.22273 105.462 4.25012 105.462 4.85813C105.462 5.72423 105.504 7.81732 105.382 8.60038C105.308 9.07565 105.214 9.39543 104.848 9.59543C104.116 9.99485 101.177 9.90842 100.059 9.90842L98.4975 9.87948C98.2786 9.88067 98.1999 9.84874 97.9992 9.84894C97.4445 9.84933 96.473 9.76869 96.0575 9.64853C95.4316 9.46748 95.2484 9.02515 95.2193 8.4401C95.187 7.79317 95.1565 7.15642 95.1565 6.47296ZM99.6845 12.6095L104.556 12.5217C107.408 12.3937 108.908 11.3067 108.927 8.55687C108.929 8.39319 108.959 8.37024 108.961 8.20636C108.984 6.43124 109.179 2.97702 108.419 1.63744C108.318 1.45999 108.191 1.3009 108.046 1.16577C107.72 0.861964 107.453 0.687506 107.001 0.503867C106.214 0.184294 105.078 0.0717142 103.963 0.0721135C103.637 0.0721135 103.432 0.0421722 103.12 0.042771C102.828 0.0433698 102.536 0.0441686 102.244 0.0437694C102.056 0.0435698 102.018 0.0144266 101.84 0.0122309C100.477 -0.00353815 97.7606 -0.0195064 96.591 0.0707167C95.5 0.154951 94.6871 0.14038 93.6124 0.558759C92.2394 1.09351 91.8269 2.43288 91.7186 3.74012C91.655 4.50901 91.6586 4.55692 91.6586 5.328C91.6586 5.59229 91.6866 5.88152 91.6454 6.13782C91.6046 6.39092 91.6276 6.72666 91.6539 6.94743L91.6577 8.17682C91.6569 8.35666 91.6862 8.40437 91.6906 8.55687C91.7333 10.0232 91.99 11.1687 93.3625 11.9472C94.1043 12.368 95.1338 12.465 96.2197 12.5494C96.3587 12.5602 96.5152 12.5437 96.6553 12.5508L97.936 12.5798C98.1262 12.5788 98.1918 12.6021 98.3412 12.6097L99.6845 12.6095Z" fill="black"/>
<path fill-rule="evenodd" clip-rule="evenodd" d="M16.4541 18.6043H5.5164C5.0932 19.2224 4.5436 20.2425 4.12784 20.9207C3.88246 21.3207 3.67911 21.7033 3.43275 22.1011L0.318123 27.3806C0.19721 27.5921 0.0139017 27.8356 0 27.9997H11.0328L14.4122 22.2348C14.5205 22.059 14.6404 21.8585 14.742 21.6742L16.1189 19.3464C16.1826 19.2376 16.2175 19.1668 16.2909 19.0495C16.3601 18.9398 16.4228 18.8585 16.4538 18.744C16.6294 18.7899 16.6277 18.8825 16.8343 19.2559C17.3361 20.1634 18.0241 21.2318 18.5614 22.1719L22.0181 28H33.0987C33.0615 27.8444 33.024 27.8055 32.9471 27.6832L31.0151 24.4564C30.7687 24.0574 30.5644 23.6868 30.3138 23.2821C29.8237 22.4903 29.3905 21.7254 28.9049 20.9391C28.471 20.2365 27.9263 19.2458 27.4873 18.6049H16.5495L19.9645 12.8287C20.2028 12.441 20.4139 12.0644 20.6418 11.6771C20.8652 11.2976 21.0989 10.9261 21.3214 10.5277C22.1099 9.11526 22.1681 9.53738 21.7006 8.7763L20.3091 6.41623C20.1905 6.21544 20.0902 6.02478 19.9648 5.82273C19.7185 5.42464 19.5151 5.04236 19.2697 4.64206L17.8957 2.3117C17.6607 1.90033 17.4298 1.54556 17.199 1.13261L16.6785 0.246C16.5825 0.0698791 16.6371 0.0480616 16.4541 0C16.4134 0.17201 14.6094 3.18345 14.4364 3.46866L11.0092 9.31763C10.9846 9.49501 14.0592 14.5292 14.3783 15.1002C14.9715 16.1626 15.9062 17.5912 16.4541 18.6043Z" fill="#FF0000"/>
<path fill-rule="evenodd" clip-rule="evenodd" d="M56.8696 8.28816C56.8696 9.06047 56.958 9.78972 57.1814 10.3717C57.2952 10.6681 57.44 10.918 57.629 11.147C57.7295 11.2685 57.8292 11.3529 57.9263 11.468C58.8394 12.5508 61.2253 12.6097 62.5135 12.6097H67.1193C68.6866 12.6097 70.6922 12.5306 71.6653 11.4303C72.7356 10.2201 72.6657 8.66224 72.6657 6.98561V0.0889422C72.6657 0.0205249 72.6432 0 72.5685 0H69.0328V7.4591C69.0328 9.19147 68.8659 9.71104 66.957 9.70862C66.4527 9.70802 66.0002 9.7382 65.465 9.7382C64.5607 9.7382 62.278 9.79233 61.5009 9.62612C61.0306 9.52571 60.7419 9.34259 60.59 8.94778C60.3757 8.39038 60.4698 6.79082 60.4698 6.00865C60.4698 4.15595 60.4434 2.14307 60.4705 0.295402C60.4725 0.158567 60.5137 0 60.3726 0H56.8696V8.28816Z" fill="black"/>
<path fill-rule="evenodd" clip-rule="evenodd" d="M39.4928 0.0897975V12.6097H42.8777V7.96713H53.1562V5.39111C53.1562 5.32208 53.1346 5.30131 53.0637 5.30131H42.8779V2.87515H53.7101V0.0897975C53.7101 0.0207696 53.6888 0 53.6179 0H39.5852C39.5143 0 39.4928 0.0207696 39.4928 0.0897975Z" fill="black"/>
<path d="M42.5889 16.7103V26.7957H40.3258V16.7103H42.5889ZM46.5667 20.9634V22.7089H41.9572V20.9634H46.5667ZM47.011 16.7103V18.4628H41.9572V16.7103H47.011Z" fill="black"/>
<path d="M57.5969 16.7103H59.8601V23.3323C59.8601 24.1173 59.6935 24.7777 59.3602 25.3133C59.0316 25.849 58.5735 26.2531 57.9857 26.5255C57.3979 26.798 56.7176 26.9342 55.9447 26.9342C55.1672 26.9342 54.4823 26.798 53.8899 26.5255C53.3021 26.2531 52.8393 25.849 52.5014 25.3133C52.1682 24.7777 52.0016 24.1173 52.0016 23.3323V16.7103H54.2717V23.3323C54.2717 23.7664 54.3365 24.1219 54.4661 24.399C54.6003 24.6715 54.7923 24.8723 55.0423 25.0016C55.2922 25.1263 55.593 25.1887 55.9447 25.1887C56.2965 25.1887 56.595 25.1263 56.8403 25.0016C57.0902 24.8723 57.2776 24.6715 57.4026 24.399C57.5321 24.1219 57.5969 23.7664 57.5969 23.3323V16.7103Z" fill="black"/>
<path d="M70.6681 24.1358C70.6681 23.9649 70.6427 23.8125 70.5918 23.6786C70.5408 23.5401 70.4483 23.4131 70.3141 23.2977C70.1799 23.1822 69.9901 23.0668 69.7448 22.9513C69.4995 22.8313 69.1779 22.7089 68.7799 22.5842C68.3263 22.4364 67.8936 22.2702 67.4817 22.0855C67.0744 21.8962 66.7111 21.6768 66.3918 21.4274C66.0725 21.1781 65.8202 20.8872 65.6351 20.5547C65.4546 20.2222 65.3644 19.8343 65.3644 19.391C65.3644 18.9615 65.4592 18.5736 65.649 18.2273C65.8387 17.881 66.1049 17.5854 66.4473 17.3407C66.7898 17.0913 67.1924 16.902 67.6553 16.7727C68.1181 16.6388 68.6271 16.5718 69.1825 16.5718C69.923 16.5718 70.5732 16.7034 71.1332 16.9666C71.6979 17.2252 72.1375 17.59 72.4522 18.0611C72.7669 18.5275 72.9243 19.07 72.9243 19.6888H70.6751C70.6751 19.4164 70.6172 19.1763 70.5015 18.9685C70.3904 18.756 70.2192 18.5898 69.9878 18.4697C69.761 18.3497 69.4764 18.2896 69.1339 18.2896C68.8007 18.2896 68.5207 18.3404 68.2939 18.442C68.0718 18.539 67.9029 18.6729 67.7871 18.8438C67.6761 19.0146 67.6205 19.2017 67.6205 19.4048C67.6205 19.5665 67.6622 19.7142 67.7455 19.8482C67.8334 19.9774 67.9584 20.0998 68.1204 20.2153C68.287 20.3261 68.4906 20.4323 68.7313 20.5339C68.9719 20.6355 69.2473 20.7325 69.5574 20.8248C70.0989 20.9957 70.5779 21.185 70.9944 21.3928C71.4156 21.6006 71.7696 21.8361 72.0565 22.0993C72.3435 22.3626 72.5587 22.6604 72.7021 22.9929C72.8502 23.3254 72.9243 23.7017 72.9243 24.1219C72.9243 24.5699 72.8364 24.967 72.6605 25.3133C72.4893 25.6597 72.2393 25.9552 71.9108 26.2C71.5868 26.4401 71.198 26.6225 70.7445 26.7472C70.2909 26.8719 69.7842 26.9342 69.2242 26.9342C68.7151 26.9342 68.2129 26.8695 67.7177 26.7402C67.2225 26.6063 66.7736 26.4031 66.371 26.1307C65.973 25.8582 65.6536 25.5119 65.413 25.0917C65.1769 24.6668 65.0589 24.1635 65.0589 23.5817H67.322C67.322 23.8864 67.366 24.145 67.4539 24.3575C67.5419 24.5653 67.6668 24.7338 67.8288 24.8631C67.9954 24.9924 68.1967 25.0848 68.4328 25.1402C68.6688 25.1956 68.9326 25.2233 69.2242 25.2233C69.562 25.2233 69.8351 25.1771 70.0433 25.0848C70.2562 24.9878 70.4136 24.8562 70.5154 24.6899C70.6172 24.5237 70.6681 24.339 70.6681 24.1358Z" fill="black"/>
<path d="M80.6154 16.7103V26.7957H78.3592V16.7103H80.6154Z" fill="black"/>
<path d="M94.8181 21.5313V21.9816C94.8181 22.7481 94.7116 23.4362 94.4988 24.0457C94.2905 24.6553 93.992 25.1748 93.6032 25.6043C93.2191 26.0337 92.7609 26.3639 92.2287 26.5948C91.7011 26.8211 91.1156 26.9342 90.4723 26.9342C89.829 26.9342 89.2413 26.8211 88.7091 26.5948C88.1768 26.3639 87.714 26.0337 87.3206 25.6043C86.9319 25.1748 86.6311 24.6553 86.4182 24.0457C86.2053 23.4362 86.0988 22.7481 86.0988 21.9816V21.5313C86.0988 20.7648 86.2053 20.0767 86.4182 19.4672C86.6311 18.853 86.9296 18.3312 87.3137 17.9017C87.7025 17.4723 88.1629 17.1444 88.6952 16.9181C89.2274 16.6873 89.8152 16.5718 90.4585 16.5718C91.1018 16.5718 91.6895 16.6873 92.2217 16.9181C92.754 17.1444 93.2122 17.4723 93.5963 17.9017C93.985 18.3312 94.2859 18.853 94.4988 19.4672C94.7116 20.0767 94.8181 20.7648 94.8181 21.5313ZM92.5341 21.9816V21.5175C92.5341 21.0049 92.4879 20.5524 92.3953 20.1599C92.3027 19.7627 92.1685 19.4302 91.9927 19.1624C91.8168 18.8946 91.5993 18.6937 91.3401 18.5598C91.0809 18.4212 90.787 18.352 90.4585 18.352C90.116 18.352 89.8175 18.4212 89.5629 18.5598C89.3084 18.6937 89.0932 18.8946 88.9173 19.1624C88.7461 19.4302 88.6142 19.7627 88.5216 20.1599C88.4337 20.5524 88.3897 21.0049 88.3897 21.5175V21.9816C88.3897 22.4895 88.4337 22.9421 88.5216 23.3392C88.6142 23.7317 88.7484 24.0642 88.9243 24.3367C89.1001 24.6091 89.3153 24.8146 89.5699 24.9531C89.829 25.0917 90.1299 25.1609 90.4723 25.1609C90.8009 25.1609 91.0925 25.0917 91.347 24.9531C91.6062 24.8146 91.8237 24.6091 91.9996 24.3367C92.1755 24.0642 92.3074 23.7317 92.3953 23.3392C92.4879 22.9421 92.5341 22.4895 92.5341 21.9816Z" fill="black"/>
<path d="M108.493 16.7103V26.7957H106.237L102.419 20.2776V26.7957H100.156V16.7103H102.419L106.244 23.2284V16.7103H108.493Z" fill="black"/>
</svg>
