<svg width="40" height="40" viewBox="0 0 40 40" fill="none" xmlns="http://www.w3.org/2000/svg">
<path d="M24.8985 23.7167L28.4643 27.2833L27.2812 28.4667L23.7154 24.9C23.0601 25.4222 22.3436 25.8222 21.566 26.1C20.744 26.3889 19.8997 26.5333 19.0333 26.5333C17.6781 26.5333 16.4173 26.1945 15.2509 25.5167C14.1178 24.85 13.2236 23.95 12.5682 22.8167C11.8795 21.65 11.5352 20.3889 11.5352 19.0333C11.5352 17.6778 11.8795 16.4167 12.5682 15.25C13.2236 14.1167 14.1178 13.2222 15.2509 12.5667C16.4173 11.8778 17.6781 11.5333 19.0333 11.5333C20.3885 11.5333 21.6493 11.8778 22.8157 12.5667C23.9487 13.2222 24.8485 14.1167 25.515 15.25C26.1926 16.4167 26.5314 17.6778 26.5314 19.0333C26.5314 19.9 26.387 20.7445 26.0982 21.5667C25.8205 22.3445 25.4206 23.0611 24.8985 23.7167ZM23.2156 23.1C23.7377 22.5667 24.1431 21.9556 24.4319 21.2667C24.7207 20.5556 24.8652 19.8111 24.8652 19.0333C24.8652 17.9778 24.5986 16.9945 24.0654 16.0833C23.5544 15.2056 22.8601 14.5111 21.9825 14C21.0717 13.4667 20.0886 13.2 19.0333 13.2C17.978 13.2 16.9949 13.4667 16.084 14C15.2065 14.5111 14.5122 15.2056 14.0012 16.0833C13.468 16.9945 13.2014 17.9778 13.2014 19.0333C13.2014 20.0889 13.468 21.0722 14.0012 21.9833C14.5122 22.8611 15.2065 23.5556 16.084 24.0667C16.9949 24.6 17.978 24.8667 19.0333 24.8667C19.8109 24.8667 20.5551 24.7222 21.2661 24.4333C21.9548 24.1445 22.5657 23.7389 23.0989 23.2167L23.2156 23.1Z" fill="#374151"/>
</svg>
