<svg width="17" height="24" viewBox="0 0 17 24" fill="none" xmlns="http://www.w3.org/2000/svg">
<path d="M8.33578 6.85324C8.85101 6.39102 9.44176 6.08658 10.108 5.93991C10.7743 5.79325 11.4316 5.8088 12.0801 5.98658C12.7552 6.17325 13.3393 6.51325 13.8323 7.00658C14.3254 7.49991 14.6652 8.08436 14.8517 8.75991C15.0294 9.4088 15.0449 10.0644 14.8983 10.7266C14.7518 11.3888 14.4475 11.9821 13.9856 12.5066L8.33578 18.1599L2.68598 12.5066C2.22405 11.9821 1.91979 11.3888 1.77322 10.7266C1.62664 10.0644 1.64219 9.4088 1.81986 8.75991C2.00641 8.08436 2.34841 7.49991 2.84588 7.00658C3.34335 6.51325 3.92521 6.17325 4.59146 5.98658C5.23994 5.8088 5.89731 5.79325 6.56356 5.93991C7.2298 6.08658 7.82055 6.39102 8.33578 6.85324ZM12.8796 7.94658C12.5509 7.61769 12.1689 7.39324 11.7337 7.27324C11.2984 7.15324 10.8586 7.14213 10.4145 7.23991C9.97031 7.33769 9.57501 7.54213 9.22856 7.85324L8.33578 8.65324L7.44301 7.85324C7.10544 7.54213 6.71235 7.33769 6.26374 7.23991C5.81513 7.14213 5.37319 7.15324 4.93791 7.27324C4.50262 7.39324 4.12064 7.61769 3.79196 7.94658C3.46327 8.27547 3.23675 8.65769 3.11238 9.09325C2.98801 9.5288 2.97247 9.96658 3.06574 10.4066C3.15902 10.8466 3.35667 11.2399 3.65871 11.5866L8.33578 16.2799L13.0129 11.5866C13.3149 11.2399 13.5125 10.8466 13.6058 10.4066C13.6991 9.96658 13.6835 9.5288 13.5592 9.09325C13.4348 8.65769 13.2083 8.27547 12.8796 7.94658Z" fill="#4B5563"/>
</svg>
