<svg width="17" height="24" viewBox="0 0 17 24" fill="none" xmlns="http://www.w3.org/2000/svg">
<path d="M5.20495 17.8798L1.67383 18.6665L2.46 15.1332C1.93589 14.1643 1.67383 13.1198 1.67383 11.9998C1.67383 11.0932 1.84705 10.2265 2.1935 9.39984C2.53107 8.60873 3.00855 7.90428 3.62594 7.2865C4.24333 6.66873 4.94734 6.19095 5.73795 5.85317C6.5641 5.5065 7.43023 5.33317 8.33633 5.33317C9.24243 5.33317 10.1086 5.5065 10.9347 5.85317C11.7253 6.19095 12.4293 6.66873 13.0467 7.2865C13.6641 7.90428 14.1416 8.60873 14.4792 9.39984C14.8256 10.2265 14.9988 11.0932 14.9988 11.9998C14.9988 12.9065 14.8256 13.7732 14.4792 14.5998C14.1416 15.3909 13.6641 16.0954 13.0467 16.7132C12.4293 17.3309 11.7253 17.8087 10.9347 18.1465C10.1086 18.4932 9.24243 18.6665 8.33633 18.6665C7.21703 18.6665 6.17324 18.4043 5.20495 17.8798ZM5.3915 16.4798L5.83123 16.7065C6.61296 17.1243 7.44799 17.3332 8.33633 17.3332C9.30461 17.3332 10.2018 17.0887 11.028 16.5998C11.8275 16.1287 12.4626 15.4932 12.9335 14.6932C13.422 13.8665 13.6663 12.9687 13.6663 11.9998C13.6663 11.0309 13.422 10.1332 12.9335 9.3065C12.4626 8.5065 11.8275 7.87095 11.028 7.39984C10.2018 6.91095 9.30461 6.6665 8.33633 6.6665C7.36804 6.6665 6.47083 6.91095 5.64468 7.39984C4.84518 7.87095 4.21002 8.5065 3.7392 9.3065C3.25062 10.1332 3.00633 11.0309 3.00633 11.9998C3.00633 12.8887 3.21509 13.7243 3.6326 14.5065L3.85913 14.9465L3.43273 16.9065L5.3915 16.4798Z" fill="#4B5563"/>
</svg>
