<svg width="56" height="72" viewBox="0 0 56 72" fill="none" xmlns="http://www.w3.org/2000/svg">
<path d="M0 12C0 5.37258 5.37258 0 12 0H44C50.6274 0 56 5.37258 56 12V44C56 50.6274 50.6274 56 44 56H12C5.37258 56 0 50.6274 0 44V12Z" fill="url(#paint0_linear_179_338)"/>
<path d="M25 18V20H31V18H33V20H37C37.28 20 37.5167 20.0967 37.71 20.29C37.9033 20.4833 38 20.72 38 21V37C38 37.28 37.9033 37.5167 37.71 37.71C37.5167 37.9033 37.28 38 37 38H19C18.72 38 18.4833 37.9033 18.29 37.71C18.0967 37.5167 18 37.28 18 37V21C18 20.72 18.0967 20.4833 18.29 20.29C18.4833 20.0967 18.72 20 19 20H23V18H25ZM36 28H20V36H36V28ZM27 30V34H22V30H27ZM23 22H20V26H36V22H33V24H31V22H25V24H23V22Z" fill="white"/>
<defs>
<linearGradient id="paint0_linear_179_338" x1="0" y1="0" x2="56" y2="56" gradientUnits="userSpaceOnUse">
<stop stop-color="#22C55E"/>
<stop offset="1" stop-color="#16A34A"/>
</linearGradient>
</defs>
</svg>
