<svg width="40" height="52" viewBox="0 0 40 52" fill="none" xmlns="http://www.w3.org/2000/svg">
<path d="M20.6366 13.4448L27.7916 25.8198C27.8916 25.9898 27.9141 26.1748 27.8591 26.3748C27.8041 26.5748 27.6866 26.7298 27.5066 26.8398C27.3966 26.9098 27.2716 26.9448 27.1316 26.9448H12.8516C12.6416 26.9448 12.4641 26.8698 12.3191 26.7198C12.1741 26.5698 12.1016 26.3948 12.1016 26.1948C12.1016 26.0548 12.1316 25.9298 12.1916 25.8198L19.3466 13.4448C19.4466 13.2648 19.5966 13.1473 19.7966 13.0923C19.9966 13.0373 20.1866 13.0598 20.3666 13.1598C20.4866 13.2298 20.5766 13.3248 20.6366 13.4448ZM14.1416 25.4448H25.8416L19.9916 15.3198L14.1416 25.4448ZM19.2416 23.1948H20.7416V24.6948H19.2416V23.1948ZM19.2416 17.9448H20.7416V21.6948H19.2416V17.9448Z" fill="black"/>
</svg>
