<svg width="40" height="52" viewBox="0 0 40 52" fill="none" xmlns="http://www.w3.org/2000/svg">
<path d="M20.7422 25.925C21.3122 25.815 21.8247 25.5825 22.2797 25.2275C22.7347 24.8725 23.0922 24.435 23.3522 23.915C23.6122 23.395 23.7422 22.84 23.7422 22.25V20C23.7422 19.48 23.6372 18.98 23.4272 18.5H16.5572C16.3472 18.98 16.2422 19.48 16.2422 20V22.25C16.2422 22.84 16.3722 23.395 16.6322 23.915C16.8922 24.435 17.2497 24.8725 17.7047 25.2275C18.1597 25.5825 18.6722 25.815 19.2422 25.925V21.5H20.7422V25.925ZM15.1472 24.275C14.8772 23.625 14.7422 22.95 14.7422 22.25H12.4922V20.75H14.7422V20C14.7422 19.53 14.8022 19.065 14.9222 18.605L13.2722 17.645L14.0222 16.355L15.5372 17.225L15.6872 17H24.2972L24.4472 17.225L25.9622 16.355L26.7122 17.645L25.0622 18.605C25.1822 19.065 25.2422 19.53 25.2422 20V20.75H27.4922V22.25H25.2422C25.2422 22.95 25.1072 23.625 24.8372 24.275L26.7122 25.355L25.9622 26.645L24.0722 25.55C23.5822 26.16 22.9872 26.635 22.2872 26.975C21.5672 27.325 20.8022 27.5 19.9922 27.5C19.1822 27.5 18.4172 27.325 17.6972 26.975C16.9972 26.635 16.4022 26.16 15.9122 25.55L14.0222 26.645L13.2722 25.355L15.1472 24.275ZM16.9922 15.5C16.9922 14.96 17.1272 14.46 17.3972 14C17.6672 13.54 18.0322 13.175 18.4922 12.905C18.9522 12.635 19.4522 12.5 19.9922 12.5C20.5322 12.5 21.0322 12.635 21.4922 12.905C21.9522 13.175 22.3172 13.54 22.5872 14C22.8572 14.46 22.9922 14.96 22.9922 15.5H16.9922Z" fill="#DC2626"/>
</svg>
