<svg width="40" height="52" viewBox="0 0 40 52" fill="none" xmlns="http://www.w3.org/2000/svg">
<path d="M0 8C0 3.58172 3.58172 0 8 0H32C36.4183 0 40 3.58172 40 8V32C40 36.4183 36.4183 40 32 40H8C3.58172 40 0 36.4183 0 32V8Z" fill="#DCFCE7"/>
<path d="M13.8272 13.115L19.9922 11.75L26.1572 13.115C26.3272 13.155 26.4672 13.245 26.5772 13.385C26.6872 13.525 26.7422 13.68 26.7422 13.85V21.335C26.7422 22.095 26.5647 22.805 26.2097 23.465C25.8547 24.125 25.3622 24.665 24.7322 25.085L19.9922 28.25L15.2522 25.085C14.6222 24.665 14.1297 24.125 13.7747 23.465C13.4197 22.805 13.2422 22.095 13.2422 21.335V13.85C13.2422 13.68 13.2972 13.525 13.4072 13.385C13.5172 13.245 13.6572 13.155 13.8272 13.115ZM14.7422 14.45V21.335C14.7422 21.845 14.8597 22.32 15.0947 22.76C15.3297 23.2 15.6572 23.56 16.0772 23.84L19.9922 26.45L23.9072 23.84C24.3272 23.56 24.6547 23.2 24.8897 22.76C25.1247 22.32 25.2422 21.845 25.2422 21.335V14.45L19.9922 13.28L14.7422 14.45ZM19.9922 19.25C19.6522 19.25 19.3397 19.165 19.0547 18.995C18.7697 18.825 18.5422 18.5975 18.3722 18.3125C18.2022 18.0275 18.1172 17.715 18.1172 17.375C18.1172 17.035 18.2022 16.7225 18.3722 16.4375C18.5422 16.1525 18.7697 15.925 19.0547 15.755C19.3397 15.585 19.6522 15.5 19.9922 15.5C20.3322 15.5 20.6447 15.585 20.9297 15.755C21.2147 15.925 21.4422 16.1525 21.6122 16.4375C21.7822 16.7225 21.8672 17.035 21.8672 17.375C21.8672 17.715 21.7822 18.0275 21.6122 18.3125C21.4422 18.5975 21.2147 18.825 20.9297 18.995C20.6447 19.165 20.3322 19.25 19.9922 19.25ZM16.6322 23C16.7022 22.44 16.8922 21.9325 17.2022 21.4775C17.5122 21.0225 17.9122 20.6625 18.4022 20.3975C18.8922 20.1325 19.4222 20 19.9922 20C20.5622 20 21.0922 20.1325 21.5822 20.3975C22.0722 20.6625 22.4722 21.0225 22.7822 21.4775C23.0922 21.9325 23.2822 22.44 23.3522 23H16.6322Z" fill="#16A34A"/>
</svg>
