<svg width="40" height="52" viewBox="0 0 40 52" fill="none" xmlns="http://www.w3.org/2000/svg">
<path d="M0 8C0 3.58172 3.58172 0 8 0H32C36.4183 0 40 3.58172 40 8V32C40 36.4183 36.4183 40 32 40H8C3.58172 40 0 36.4183 0 32V8Z" fill="#DBEAFE"/>
<path d="M25.9922 27.5H13.9922C13.7822 27.5 13.6047 27.4275 13.4597 27.2825C13.3147 27.1375 13.2422 26.96 13.2422 26.75V13.25C13.2422 13.04 13.3147 12.8625 13.4597 12.7175C13.6047 12.5725 13.7822 12.5 13.9922 12.5H25.9922C26.2022 12.5 26.3797 12.5725 26.5247 12.7175C26.6697 12.8625 26.7422 13.04 26.7422 13.25V26.75C26.7422 26.96 26.6697 27.1375 26.5247 27.2825C26.3797 27.4275 26.2022 27.5 25.9922 27.5ZM25.2422 26V14H14.7422V26H25.2422ZM16.9922 16.25H22.9922V17.75H16.9922V16.25ZM16.9922 19.25H22.9922V20.75H16.9922V19.25ZM16.9922 22.25H22.9922V23.75H16.9922V22.25Z" fill="#2563EB"/>
</svg>
