<svg width="32" height="32" viewBox="0 0 32 32" fill="none" xmlns="http://www.w3.org/2000/svg">
<path d="M15.0722 17.32V18.6533C14.3526 18.6533 13.6819 18.8356 13.0601 19.2C12.456 19.5556 11.9763 20.0311 11.621 20.6267C11.2568 21.2489 11.0747 21.9245 11.0747 22.6533H9.74219C9.74219 21.6845 9.98648 20.7867 10.4751 19.96C10.9459 19.1511 11.581 18.5111 12.3805 18.04C13.2067 17.56 14.1039 17.32 15.0722 17.32ZM15.0722 16.6533C14.3526 16.6533 13.6819 16.4711 13.0601 16.1067C12.456 15.7511 11.9763 15.2711 11.621 14.6667C11.2568 14.0445 11.0747 13.3711 11.0747 12.6467C11.0747 11.9222 11.2568 11.2489 11.621 10.6267C11.9763 10.0311 12.456 9.55557 13.0601 9.20001C13.6819 8.83557 14.3549 8.65335 15.0789 8.65335C15.8028 8.65335 16.4758 8.83557 17.0976 9.20001C17.6928 9.55557 18.168 10.0311 18.5234 10.6267C18.8876 11.2489 19.0697 11.9222 19.0697 12.6467C19.0697 13.3711 18.8876 14.0445 18.5234 14.6667C18.168 15.2711 17.6928 15.7511 17.0976 16.1067C16.4758 16.4711 15.8006 16.6533 15.0722 16.6533ZM15.0722 15.32C15.5519 15.32 15.9961 15.2 16.4047 14.96C16.8133 14.72 17.1376 14.3956 17.3774 13.9867C17.6173 13.5778 17.7372 13.1333 17.7372 12.6533C17.7372 12.1733 17.6173 11.7289 17.3774 11.32C17.1376 10.9111 16.8133 10.5867 16.4047 10.3467C15.9961 10.1067 15.5519 9.98668 15.0722 9.98668C14.5925 9.98668 14.1483 10.1067 13.7397 10.3467C13.3311 10.5867 13.0068 10.9111 12.767 11.32C12.5271 11.7289 12.4072 12.1733 12.4072 12.6533C12.4072 13.1333 12.5271 13.5778 12.767 13.9867C13.0068 14.3956 13.3311 14.72 13.7397 14.96C14.1483 15.2 14.5925 15.32 15.0722 15.32ZM19.0697 22.32L17.1109 23.3467L17.484 21.16L15.8983 19.6267L18.097 19.3067L19.0697 17.32L20.0557 19.3067L22.241 19.6267L20.6554 21.16L21.0285 23.3467L19.0697 22.32Z" fill="white"/>
</svg>
