<svg width="17" height="24" viewBox="0 0 17 24" fill="none" xmlns="http://www.w3.org/2000/svg">
<path d="M9.41456 15.3465L6.61631 13.8265C6.36758 14.0843 6.07443 14.2887 5.73686 14.4398C5.39929 14.5909 5.04396 14.6665 4.67086 14.6665C4.19116 14.6665 3.74699 14.5465 3.33836 14.3065C2.92973 14.0665 2.60548 13.7421 2.36563 13.3332C2.12578 12.9243 2.00586 12.4798 2.00586 11.9998C2.00586 11.5198 2.12578 11.0754 2.36563 10.6665C2.60548 10.2576 2.92973 9.93317 3.33836 9.69317C3.74699 9.45317 4.19116 9.33317 4.67086 9.33317C5.04396 9.33317 5.39929 9.40873 5.73686 9.55984C6.07443 9.71095 6.36758 9.91539 6.61631 10.1732L9.41456 8.65317C9.36126 8.43984 9.33461 8.22206 9.33461 7.99984C9.33461 7.51984 9.45453 7.07539 9.69438 6.6665C9.93423 6.25762 10.2585 5.93317 10.6671 5.69317C11.0757 5.45317 11.5199 5.33317 11.9996 5.33317C12.4793 5.33317 12.9235 5.45317 13.3321 5.69317C13.7407 5.93317 14.065 6.25762 14.3048 6.6665C14.5447 7.07539 14.6646 7.51984 14.6646 7.99984C14.6646 8.47984 14.5447 8.92428 14.3048 9.33317C14.065 9.74206 13.7407 10.0665 13.3321 10.3065C12.9235 10.5465 12.4793 10.6665 11.9996 10.6665C11.6265 10.6665 11.2712 10.5909 10.9336 10.4398C10.596 10.2887 10.3029 10.0843 10.0542 9.8265L7.25591 11.3465C7.30921 11.5598 7.33586 11.7776 7.33586 11.9998C7.33586 12.2221 7.30921 12.4398 7.25591 12.6532L10.0542 14.1732C10.3029 13.9154 10.596 13.7109 10.9336 13.5598C11.2712 13.4087 11.6265 13.3332 11.9996 13.3332C12.4793 13.3332 12.9235 13.4532 13.3321 13.6932C13.7407 13.9332 14.065 14.2576 14.3048 14.6665C14.5447 15.0754 14.6646 15.5198 14.6646 15.9998C14.6646 16.4798 14.5447 16.9243 14.3048 17.3332C14.065 17.7421 13.7407 18.0665 13.3321 18.3065C12.9235 18.5465 12.4793 18.6665 11.9996 18.6665C11.5199 18.6665 11.0757 18.5465 10.6671 18.3065C10.2585 18.0665 9.93423 17.7421 9.69438 17.3332C9.45453 16.9243 9.33461 16.4798 9.33461 15.9998C9.33461 15.7776 9.36126 15.5598 9.41456 15.3465ZM4.67086 13.3332C4.91071 13.3332 5.13279 13.2732 5.33711 13.1532C5.54143 13.0332 5.70355 12.8709 5.82347 12.6665C5.9434 12.4621 6.00336 12.2398 6.00336 11.9998C6.00336 11.7598 5.9434 11.5376 5.82347 11.3332C5.70355 11.1287 5.54143 10.9665 5.33711 10.8465C5.13279 10.7265 4.91071 10.6665 4.67086 10.6665C4.43101 10.6665 4.20893 10.7265 4.00461 10.8465C3.80029 10.9665 3.63817 11.1287 3.51825 11.3332C3.39832 11.5376 3.33836 11.7598 3.33836 11.9998C3.33836 12.2398 3.39832 12.4621 3.51825 12.6665C3.63817 12.8709 3.80029 13.0332 4.00461 13.1532C4.20893 13.2732 4.43101 13.3332 4.67086 13.3332ZM11.9996 9.33317C12.2395 9.33317 12.4615 9.27317 12.6659 9.15317C12.8702 9.03317 13.0323 8.87095 13.1522 8.6665C13.2721 8.46206 13.3321 8.23984 13.3321 7.99984C13.3321 7.75984 13.2721 7.53762 13.1522 7.33317C13.0323 7.12873 12.8702 6.9665 12.6659 6.8465C12.4615 6.7265 12.2395 6.6665 11.9996 6.6665C11.7598 6.6665 11.5377 6.7265 11.3334 6.8465C11.129 6.9665 10.9669 7.12873 10.847 7.33317C10.7271 7.53762 10.6671 7.75984 10.6671 7.99984C10.6671 8.23984 10.7271 8.46206 10.847 8.6665C10.9669 8.87095 11.129 9.03317 11.3334 9.15317C11.5377 9.27317 11.7598 9.33317 11.9996 9.33317ZM11.9996 17.3332C12.2395 17.3332 12.4615 17.2732 12.6659 17.1532C12.8702 17.0332 13.0323 16.8709 13.1522 16.6665C13.2721 16.4621 13.3321 16.2398 13.3321 15.9998C13.3321 15.7598 13.2721 15.5376 13.1522 15.3332C13.0323 15.1287 12.8702 14.9665 12.6659 14.8465C12.4615 14.7265 12.2395 14.6665 11.9996 14.6665C11.7598 14.6665 11.5377 14.7265 11.3334 14.8465C11.129 14.9665 10.9669 15.1287 10.847 15.3332C10.7271 15.5376 10.6671 15.7598 10.6671 15.9998C10.6671 16.2398 10.7271 16.4621 10.847 16.6665C10.9669 16.8709 11.129 17.0332 11.3334 17.1532C11.5377 17.2732 11.7598 17.3332 11.9996 17.3332Z" fill="#4B5563"/>
</svg>
