<svg width="56" height="72" viewBox="0 0 56 72" fill="none" xmlns="http://www.w3.org/2000/svg">
<path d="M0 12C0 5.37258 5.37258 0 12 0H44C50.6274 0 56 5.37258 56 12V44C56 50.6274 50.6274 56 44 56H12C5.37258 56 0 50.6274 0 44V12Z" fill="url(#paint0_linear_179_350)"/>
<path d="M28 36.0401L32.94 31.0801C33.8467 30.1868 34.46 29.1334 34.78 27.9201C35.0867 26.7334 35.0867 25.5468 34.78 24.3601C34.46 23.1468 33.85 22.0901 32.95 21.1901C32.05 20.2901 30.9933 19.6801 29.78 19.3601C28.5933 19.0534 27.4067 19.0534 26.22 19.3601C25.0067 19.6801 23.95 20.2901 23.05 21.1901C22.15 22.0901 21.54 23.1468 21.22 24.3601C20.9133 25.5468 20.9133 26.7334 21.22 27.9201C21.54 29.1334 22.1533 30.1868 23.06 31.0801L28 36.0401ZM28 38.8601L21.64 32.5001C20.48 31.3534 19.7 29.9934 19.3 28.4201C18.9 26.9001 18.9 25.3801 19.3 23.8601C19.7 22.2868 20.4767 20.9234 21.63 19.7701C22.7833 18.6168 24.1467 17.8334 25.72 17.4201C27.24 17.0334 28.76 17.0334 30.28 17.4201C31.8533 17.8334 33.2167 18.6168 34.37 19.7701C35.5233 20.9234 36.3 22.2868 36.7 23.8601C37.1 25.3801 37.1 26.9001 36.7 28.4201C36.3 29.9934 35.52 31.3534 34.36 32.5001L28 38.8601ZM28 28.1401C28.36 28.1401 28.6933 28.0501 29 27.8701C29.3067 27.6901 29.55 27.4468 29.73 27.1401C29.91 26.8334 30 26.5001 30 26.1401C30 25.7801 29.91 25.4468 29.73 25.1401C29.55 24.8334 29.3067 24.5901 29 24.4101C28.6933 24.2301 28.36 24.1401 28 24.1401C27.64 24.1401 27.3067 24.2301 27 24.4101C26.6933 24.5901 26.45 24.8334 26.27 25.1401C26.09 25.4468 26 25.7801 26 26.1401C26 26.5001 26.09 26.8334 26.27 27.1401C26.45 27.4468 26.6933 27.6901 27 27.8701C27.3067 28.0501 27.64 28.1401 28 28.1401ZM28 30.1401C27.28 30.1401 26.6133 29.9601 26 29.6001C25.3867 29.2401 24.9 28.7534 24.54 28.1401C24.18 27.5268 24 26.8568 24 26.1301C24 25.4034 24.18 24.7368 24.54 24.1301C24.9 23.5234 25.3867 23.0401 26 22.6801C26.6133 22.3201 27.28 22.1401 28 22.1401C28.72 22.1401 29.3867 22.3201 30 22.6801C30.6133 23.0401 31.1 23.5234 31.46 24.1301C31.82 24.7368 32 25.4034 32 26.1301C32 26.8568 31.82 27.5268 31.46 28.1401C31.1 28.7534 30.6133 29.2401 30 29.6001C29.3867 29.9601 28.72 30.1401 28 30.1401Z" fill="white"/>
<defs>
<linearGradient id="paint0_linear_179_350" x1="0" y1="0" x2="56" y2="56" gradientUnits="userSpaceOnUse">
<stop stop-color="#A855F7"/>
<stop offset="1" stop-color="#9333EA"/>
</linearGradient>
</defs>
</svg>
