<svg width="56" height="72" viewBox="0 0 56 72" fill="none" xmlns="http://www.w3.org/2000/svg">
<path d="M0 12C0 5.37258 5.37258 0 12 0H44C50.6274 0 56 5.37258 56 12V44C56 50.6274 50.6274 56 44 56H12C5.37258 56 0 50.6274 0 44V12Z" fill="url(#paint0_linear_179_326)"/>
<path d="M32.8205 32.0601L33.0005 32.2401L33.1805 32.0601C33.4605 31.7668 33.7938 31.5701 34.1805 31.4701C34.5671 31.3701 34.9538 31.3701 35.3405 31.4701C35.7271 31.5701 36.0671 31.7668 36.3605 32.0601C36.6538 32.3534 36.8505 32.6934 36.9505 33.0801C37.0505 33.4668 37.0505 33.8501 36.9505 34.2301C36.8505 34.6101 36.6538 34.9468 36.3605 35.2401L33.0005 38.6001L29.6405 35.2401C29.3471 34.9468 29.1505 34.6101 29.0505 34.2301C28.9505 33.8501 28.9505 33.4668 29.0505 33.0801C29.1505 32.6934 29.3471 32.3534 29.6405 32.0601C29.9338 31.7668 30.2738 31.5701 30.6605 31.4701C31.0471 31.3701 31.4338 31.3701 31.8205 31.4701C32.2071 31.5701 32.5405 31.7668 32.8205 32.0601ZM26.9805 30.4001V32.4001C25.9005 32.4001 24.8938 32.6734 23.9605 33.2201C23.0538 33.7534 22.3338 34.4734 21.8005 35.3801C21.2538 36.3134 20.9805 37.3201 20.9805 38.4001H18.9805C18.9805 36.9734 19.3338 35.6468 20.0405 34.4201C20.7205 33.2334 21.6471 32.2868 22.8205 31.5801C24.0205 30.8334 25.3271 30.4401 26.7405 30.4001H26.9805ZM26.9805 17.4001C28.0738 17.4001 29.0871 17.6734 30.0205 18.2201C30.9138 18.7534 31.6271 19.4734 32.1605 20.3801C32.7071 21.3001 32.9805 22.3001 32.9805 23.3801C32.9805 24.4601 32.7205 25.4534 32.2005 26.3601C31.6938 27.2534 30.9971 27.9734 30.1105 28.5201C29.2238 29.0668 28.2538 29.3601 27.2005 29.4001H26.9805C25.9005 29.4001 24.8938 29.1268 23.9605 28.5801C23.0538 28.0468 22.3338 27.3268 21.8005 26.4201C21.2538 25.5001 20.9805 24.5001 20.9805 23.4201C20.9805 22.3401 21.2405 21.3468 21.7605 20.4401C22.2671 19.5468 22.9638 18.8268 23.8505 18.2801C24.7371 17.7334 25.7071 17.4401 26.7605 17.4001H26.9805ZM26.9805 19.4001C26.2605 19.4001 25.5938 19.5801 24.9805 19.9401C24.3671 20.3001 23.8805 20.7868 23.5205 21.4001C23.1605 22.0134 22.9805 22.6801 22.9805 23.4001C22.9805 24.1201 23.1605 24.7868 23.5205 25.4001C23.8805 26.0134 24.3671 26.5001 24.9805 26.8601C25.5938 27.2201 26.2605 27.4001 26.9805 27.4001C27.7005 27.4001 28.3671 27.2201 28.9805 26.8601C29.5938 26.5001 30.0805 26.0134 30.4405 25.4001C30.8005 24.7868 30.9805 24.1201 30.9805 23.4001C30.9805 22.6801 30.8005 22.0134 30.4405 21.4001C30.0805 20.7868 29.5938 20.3001 28.9805 19.9401C28.3671 19.5801 27.7005 19.4001 26.9805 19.4001Z" fill="white"/>
<defs>
<linearGradient id="paint0_linear_179_326" x1="0" y1="0" x2="56" y2="56" gradientUnits="userSpaceOnUse">
<stop stop-color="#3B82F6"/>
<stop offset="1" stop-color="#2563EB"/>
</linearGradient>
</defs>
</svg>
